HIERARCHY
ROOT	Hips
{
	OFFSET	0.000	0.000	0.000
	CHANNELS	6	Xposition	Yposition	Zposition	Yrotation	Xrotation	Zrotation
	JOINT	Chest
	{
		OFFSET	0.000	10.049	-0.018
		CHANNELS	3	Yrotation	Xrotation	Zrotation
		JOINT	Chest2
		{
			OFFSET	-0.013	22.718	-0.005
			CHANNELS	3	Yrotation	Xrotation	Zrotation
			JOINT	LeftCollar
			{
				OFFSET	3.045	22.720	0.013
				CHANNELS	3	Yrotation	Xrotation	Zrotation
				JOINT	LeftShoulder
				{
					OFFSET	11.359	0.006	-0.000
					CHANNELS	3	Yrotation	Xrotation	Zrotation
					JOINT	LeftElbow
					{
						OFFSET	26.214	0.015	-0.001
						CHANNELS	3	Yrotation	Xrotation	Zrotation
						JOINT	LeftWrist
						{
							OFFSET	26.214	0.015	-0.001
							CHANNELS	3	Yrotation	Xrotation	Zrotation
							End Site
							{
								OFFSET	-0.000	-10.922	-0.006
							}
						}
					}
				}
			}
			JOINT	Neck
			{
				OFFSET	-0.013	22.718	0.008
				CHANNELS	3	Yrotation	Xrotation	Zrotation
				JOINT	Head
				{
					OFFSET	-0.004	6.553	0.004
					CHANNELS	3	Yrotation	Xrotation	Zrotation
					End Site
					{
						OFFSET	-0.012	20.534	-0.005
					}
				}
			}
			JOINT	RightCollar
			{
				OFFSET	-3.071	22.717	0.013
				CHANNELS	3	Yrotation	Xrotation	Zrotation
				JOINT	RightShoulder
				{
					OFFSET	-11.359	-0.006	0.000
					CHANNELS	3	Yrotation	Xrotation	Zrotation
					JOINT	RightElbow
					{
						OFFSET	-26.214	-0.015	0.001
						CHANNELS	3	Yrotation	Xrotation	Zrotation
						JOINT	RightWrist
						{
							OFFSET	-26.214	-0.015	0.001
							CHANNELS	3	Yrotation	Xrotation	Zrotation
							End Site
							{
								OFFSET	-0.000	-10.922	0.006
							}
						}
					}
				}
			}
		}
	}
	JOINT	LeftHip
	{
		OFFSET	8.738	-0.000	-0.000
		CHANNELS	3	Yrotation	Xrotation	Zrotation
		JOINT	LeftKnee
		{
			OFFSET	-0.000	-43.689	-0.035
			CHANNELS	3	Yrotation	Xrotation	Zrotation
			JOINT	LeftAnkle
			{
				OFFSET	-0.000	-43.689	-0.035
				CHANNELS	3	Yrotation	Xrotation	Zrotation
				End Site
				{
					OFFSET	-0.000	-10.059	12.924
				}
			}
		}
	}
	JOINT	RightHip
	{
		OFFSET	-8.738	0.000	0.000
		CHANNELS	3	Yrotation	Xrotation	Zrotation
		JOINT	RightKnee
		{
			OFFSET	-0.000	-43.689	-0.035
			CHANNELS	3	Yrotation	Xrotation	Zrotation
			JOINT	RightAnkle
			{
				OFFSET	-0.000	-43.689	-0.035
				CHANNELS	3	Yrotation	Xrotation	Zrotation
				End Site
				{
					OFFSET	-0.000	-10.059	12.924
				}
			}
		}
	}
}
MOTION
Frames:	20
Frame Time:	0.033
98.524	97.236	-106.936	8.603	351.507	358.197	357.315	6.019	358.915	357.315	6.019	358.915	344.340	351.328	9.507	11.260	353.410	279.335	346.026	16.594	356.344	27.252	339.600	101.333	350.691	359.057	2.186	350.691	359.057	2.186	3.989	349.164	1.672	7.968	4.500	86.202	6.201	355.905	1.075	359.217	24.494	260.699	346.798	10.064	358.300	23.286	7.683	1.602	345.200	352.250	2.994	11.228	337.258	0.346	357.592	18.855	1.667	348.452	3.734	357.599	
99.404	96.886	-104.011	8.895	352.219	359.501	357.150	5.640	358.378	357.150	5.640	358.378	344.456	351.338	9.424	10.734	352.484	279.752	345.367	16.217	356.388	28.051	339.997	101.746	350.710	358.977	2.086	350.710	358.977	2.086	4.402	349.541	1.692	7.431	5.403	86.358	5.633	356.239	0.920	358.576	24.841	261.044	346.036	10.427	356.525	23.711	8.365	1.737	345.006	351.251	2.901	12.818	340.024	358.669	353.772	4.872	0.827	349.689	4.597	359.557	
100.428	96.195	-100.174	9.922	352.705	0.431	356.886	5.368	358.023	356.886	5.368	358.023	344.180	351.320	9.199	10.331	351.678	280.266	345.428	16.006	356.218	28.272	340.126	102.226	350.554	358.874	1.965	350.554	358.874	1.965	4.249	349.827	1.658	6.665	6.123	86.421	5.025	356.783	1.080	358.503	25.101	261.183	344.940	10.446	355.199	23.314	11.257	2.235	345.392	348.820	2.932	9.928	342.391	358.179	353.032	357.681	1.646	351.282	0.802	0.840	
101.223	95.713	-96.762	11.235	352.705	0.529	356.565	5.487	357.998	356.565	5.487	357.998	344.015	351.177	9.092	10.043	351.211	280.532	345.572	16.111	356.186	28.587	340.035	102.350	350.338	358.713	1.904	350.338	358.713	1.904	4.155	350.083	1.836	5.648	6.967	86.496	4.554	357.347	1.313	358.371	25.262	261.301	343.381	10.709	354.646	23.221	14.026	2.772	345.709	347.961	2.598	5.905	342.767	0.167	353.240	357.735	1.295	351.363	357.831	3.441	
102.547	94.167	-90.769	12.106	352.253	0.825	356.408	5.810	358.230	356.408	5.810	358.230	343.871	350.956	8.417	10.725	351.254	280.242	345.769	16.552	356.481	28.990	340.310	101.512	350.269	358.292	1.369	350.269	358.292	1.369	4.078	350.155	1.419	4.881	7.968	86.621	4.344	357.634	1.401	358.330	25.268	261.356	342.634	11.347	354.238	22.561	20.416	3.653	345.482	344.820	2.899	3.984	341.844	0.335	359.827	4.330	1.611	344.944	359.354	358.114	
103.158	93.283	-86.942	11.691	351.806	0.873	356.888	5.885	358.543	356.888	5.885	358.543	343.543	351.258	7.891	11.691	351.768	279.762	346.310	16.521	356.518	28.743	339.924	101.185	350.155	358.100	0.896	350.155	358.100	0.896	3.782	350.491	1.418	4.358	8.803	86.592	4.028	357.805	1.490	358.344	25.211	261.367	344.007	11.639	354.583	22.063	25.214	4.753	344.301	343.273	3.399	5.117	341.047	1.480	3.791	8.315	1.551	341.834	4.102	357.458	
103.126	92.295	-82.617	11.640	350.926	359.841	357.132	6.225	359.601	357.132	6.225	359.601	343.378	351.318	6.835	12.926	352.502	279.179	347.066	16.947	356.559	28.330	339.149	100.603	350.241	358.110	0.235	350.241	358.110	0.235	3.572	350.790	0.832	4.035	8.943	86.379	3.424	358.228	1.524	358.307	25.191	261.427	345.533	10.885	356.550	23.387	32.539	7.607	342.450	345.216	3.622	8.002	341.931	2.548	6.163	13.312	2.323	337.941	5.507	357.412	
102.366	91.118	-75.237	11.800	350.219	358.659	356.671	6.459	0.645	356.671	6.459	0.645	344.139	350.903	6.704	15.189	354.810	276.804	349.233	17.809	357.328	26.954	338.851	99.036	350.907	358.353	359.637	350.907	358.353	359.637	4.443	350.286	0.244	3.631	9.510	86.333	2.883	358.443	1.186	357.892	26.152	262.094	344.882	7.280	359.362	27.898	46.246	13.039	341.585	352.399	1.448	10.827	342.377	3.410	5.573	17.219	3.802	336.077	3.692	355.274	
102.175	92.195	-69.769	12.260	349.842	357.670	356.642	6.548	1.158	356.642	6.548	1.158	344.078	350.862	7.084	15.941	356.227	275.417	350.669	18.216	357.808	27.010	339.343	95.809	350.951	358.781	359.726	350.951	358.781	359.726	4.512	350.396	0.326	3.253	9.204	86.139	2.870	358.035	1.179	357.798	26.280	262.303	344.408	2.521	1.998	31.070	55.809	17.414	340.980	9.598	359.358	9.808	345.954	4.653	4.788	17.434	3.707	337.430	0.502	355.399	
101.077	92.561	-65.565	12.575	349.915	357.125	356.818	6.472	1.295	356.818	6.472	1.295	344.351	350.786	7.413	15.657	357.480	274.420	352.549	19.024	358.381	25.753	339.729	93.490	350.768	359.101	0.036	350.768	359.101	0.036	4.459	350.518	0.711	3.599	8.594	86.038	3.356	357.795	1.004	357.970	25.404	262.043	347.969	359.228	4.103	32.368	61.450	23.645	340.457	17.765	358.160	8.737	348.390	5.150	3.447	17.103	3.323	339.515	358.527	355.864	
98.395	94.067	-67.716	12.172	349.990	357.460	357.563	6.158	1.086	357.563	6.158	1.086	344.544	351.144	7.154	15.366	358.715	273.937	353.379	20.163	358.891	25.547	341.480	89.925	350.381	359.531	0.103	350.381	359.531	0.103	4.218	350.823	0.800	5.330	7.267	86.381	3.460	356.535	0.608	357.967	25.385	261.611	357.689	354.014	5.173	29.663	66.971	30.117	343.808	10.519	0.778	8.641	351.379	4.708	4.045	16.352	4.044	339.710	356.302	355.997	
96.254	95.263	-72.611	10.874	350.222	358.354	358.404	5.879	0.827	358.404	5.879	0.827	345.253	351.287	6.422	16.490	0.262	273.816	353.172	21.083	358.819	24.616	341.866	90.017	350.281	359.800	359.804	350.281	359.800	359.804	4.188	350.973	0.417	6.490	6.106	86.559	4.180	356.643	0.354	358.061	25.277	261.274	2.236	350.604	4.546	29.182	68.496	32.428	344.628	5.482	4.275	9.493	354.305	3.760	4.426	14.326	4.368	340.043	355.549	356.209	
96.969	96.394	-71.335	9.000	350.078	359.630	359.596	5.718	0.476	359.596	5.718	0.476	345.467	351.549	5.717	17.767	2.015	273.722	352.701	20.767	358.557	24.007	340.120	90.938	350.203	0.252	359.070	350.203	0.252	359.070	4.080	350.816	359.699	9.155	4.037	86.873	3.869	355.824	0.118	357.970	25.082	261.490	2.409	345.840	3.965	29.962	67.761	31.143	344.457	3.543	6.909	10.761	358.317	2.298	2.990	12.087	4.465	342.335	354.581	356.539	
97.999	96.875	-68.809	7.754	350.048	0.530	0.480	5.686	0.228	0.480	5.686	0.228	345.487	351.603	5.239	18.668	3.817	273.535	352.157	19.543	358.467	23.207	337.922	91.506	350.009	0.443	358.597	350.009	0.443	358.597	3.771	350.423	359.195	10.710	2.934	87.021	4.292	355.881	359.909	358.678	25.807	261.700	359.953	343.100	4.215	29.984	65.628	27.619	343.933	359.217	7.335	11.168	1.835	1.093	3.498	9.298	4.939	342.799	354.208	356.588	
99.186	97.270	-65.939	6.276	350.217	1.285	1.433	5.605	0.031	1.433	5.605	0.031	345.376	351.690	4.812	19.188	4.968	273.460	351.764	18.765	358.514	22.731	336.936	91.299	349.870	0.587	358.060	349.870	0.587	358.060	3.683	349.860	358.592	12.149	1.845	87.180	5.438	356.315	359.609	358.136	25.270	261.956	356.824	339.391	4.847	29.774	60.728	23.415	343.496	358.722	6.457	12.351	4.069	0.192	3.083	7.754	5.332	343.480	353.672	356.615	
99.995	97.482	-63.572	5.023	350.285	1.989	2.226	5.644	359.876	2.226	5.644	359.876	345.330	351.697	4.243	19.753	5.885	273.515	351.919	18.167	358.546	22.261	336.598	90.774	349.716	0.593	357.660	349.716	0.593	357.660	3.599	349.423	358.035	13.953	0.219	86.899	5.624	355.682	359.604	358.920	25.663	261.948	356.169	337.351	4.851	29.656	54.891	21.400	343.377	354.436	4.994	13.807	6.335	359.442	2.115	6.127	5.617	344.124	353.204	356.515	
101.054	97.560	-60.404	3.789	350.819	2.196	2.922	5.456	359.928	2.922	5.456	359.928	345.667	351.880	3.270	20.868	6.939	273.725	351.808	18.711	358.822	21.982	336.615	90.004	349.708	0.477	357.176	349.708	0.477	357.176	3.886	348.916	357.285	15.213	358.662	86.640	7.524	355.952	359.276	358.234	25.153	262.165	355.215	335.305	5.500	30.334	44.673	19.544	343.524	355.016	3.100	16.977	9.048	359.560	359.854	3.731	5.690	344.345	352.527	356.484	
101.452	97.408	-58.268	3.192	351.236	1.834	3.253	5.265	0.133	3.253	5.265	0.133	345.905	352.020	2.718	21.551	7.361	273.830	352.727	18.511	359.075	21.299	336.816	89.520	349.767	0.372	356.934	349.767	0.372	356.934	4.097	348.801	356.925	16.048	357.009	86.063	7.927	355.636	359.437	358.995	25.224	261.997	356.305	335.111	5.643	28.727	31.676	16.776	342.557	357.252	0.343	19.512	10.145	0.416	358.131	3.151	5.745	344.212	351.680	356.537	
101.879	97.175	-56.035	2.821	351.584	1.162	3.500	5.097	0.437	3.500	5.097	0.437	346.140	352.090	2.117	22.377	7.906	273.865	353.225	18.635	359.564	21.390	336.529	88.325	349.829	0.229	356.711	349.829	0.229	356.711	4.344	348.726	356.574	16.227	355.929	85.809	9.606	355.695	359.250	358.439	24.983	262.100	358.193	335.816	5.719	25.145	21.198	13.337	342.190	359.147	357.134	21.598	11.365	1.634	356.849	2.340	5.602	343.983	351.009	356.834	
102.622	96.548	-52.324	2.548	351.731	359.705	3.712	5.092	1.115	3.712	5.092	1.115	346.420	351.871	1.734	23.112	8.388	273.756	354.280	18.180	359.986	20.755	336.730	87.669	349.876	359.926	356.642	349.876	359.926	356.642	4.710	348.405	356.202	16.569	354.549	85.304	10.367	355.272	359.393	359.113	24.766	261.888	354.677	337.978	9.131	27.080	6.894	7.943	340.670	1.560	352.593	23.459	12.970	3.774	355.408	2.806	5.472	344.367	348.923	357.676	
